ISO-10303-21;
HEADER;
/* Generated by software containing ST-Developer
 * from STEP Tools, Inc. (www.steptools.com) 
 */

FILE_DESCRIPTION(
/* description */ (''),
/* implementation_level */ '2;1');

FILE_NAME(
/* name */ 'Cross brace.step',
/* time_stamp */ '2026-06-04T16:28:48+03:00',
/* author */ (''),
/* organization */ (''),
/* preprocessor_version */ 'ST-DEVELOPER v20.1',
/* originating_system */ 'Autodesk Translation Framework v15.8.0.0',
/* authorisation */ '');

FILE_SCHEMA (('AUTOMOTIVE_DESIGN { 1 0 10303 214 3 1 1 }'));
ENDSEC;

DATA;
#10=MECHANICAL_DESIGN_GEOMETRIC_PRESENTATION_REPRESENTATION('',(#13),#570);
#11=SHAPE_REPRESENTATION_RELATIONSHIP('SRR','None',#577,#12);
#12=ADVANCED_BREP_SHAPE_REPRESENTATION('',(#14),#569);
#13=STYLED_ITEM('',(#586),#14);
#14=MANIFOLD_SOLID_BREP('Body1',#346);
#15=CYLINDRICAL_SURFACE('',#366,1.5);
#16=CYLINDRICAL_SURFACE('',#367,1.5);
#17=CYLINDRICAL_SURFACE('',#371,1.5);
#18=CYLINDRICAL_SURFACE('',#374,1.5);
#19=ELLIPSE('',#364,1.50266132155132,1.5);
#20=ELLIPSE('',#365,1.50266132155132,1.5);
#21=ELLIPSE('',#373,1.50301664644044,1.5);
#22=ELLIPSE('',#376,1.50301664644044,1.5);
#23=FACE_BOUND('',#53,.T.);
#24=FACE_BOUND('',#54,.T.);
#25=FACE_BOUND('',#56,.T.);
#26=FACE_BOUND('',#57,.T.);
#27=FACE_BOUND('',#69,.T.);
#28=FACE_BOUND('',#70,.T.);
#29=FACE_BOUND('',#74,.T.);
#30=FACE_BOUND('',#75,.T.);
#31=CIRCLE('',#361,1.5);
#32=CIRCLE('',#362,1.5);
#33=CIRCLE('',#372,1.5);
#34=CIRCLE('',#375,1.5);
#35=FACE_OUTER_BOUND('',#52,.T.);
#36=FACE_OUTER_BOUND('',#55,.T.);
#37=FACE_OUTER_BOUND('',#58,.T.);
#38=FACE_OUTER_BOUND('',#59,.T.);
#39=FACE_OUTER_BOUND('',#60,.T.);
#40=FACE_OUTER_BOUND('',#61,.T.);
#41=FACE_OUTER_BOUND('',#62,.T.);
#42=FACE_OUTER_BOUND('',#63,.T.);
#43=FACE_OUTER_BOUND('',#64,.T.);
#44=FACE_OUTER_BOUND('',#65,.T.);
#45=FACE_OUTER_BOUND('',#66,.T.);
#46=FACE_OUTER_BOUND('',#67,.T.);
#47=FACE_OUTER_BOUND('',#68,.T.);
#48=FACE_OUTER_BOUND('',#71,.T.);
#49=FACE_OUTER_BOUND('',#72,.T.);
#50=FACE_OUTER_BOUND('',#73,.T.);
#51=FACE_OUTER_BOUND('',#76,.T.);
#52=EDGE_LOOP('',(#226,#227,#228,#229));
#53=EDGE_LOOP('',(#230));
#54=EDGE_LOOP('',(#231));
#55=EDGE_LOOP('',(#232,#233,#234,#235));
#56=EDGE_LOOP('',(#236));
#57=EDGE_LOOP('',(#237));
#58=EDGE_LOOP('',(#238,#239,#240,#241));
#59=EDGE_LOOP('',(#242,#243,#244,#245));
#60=EDGE_LOOP('',(#246,#247,#248,#249));
#61=EDGE_LOOP('',(#250,#251,#252,#253,#254,#255,#256,#257,#258,#259));
#62=EDGE_LOOP('',(#260,#261,#262,#263,#264));
#63=EDGE_LOOP('',(#265,#266,#267,#268));
#64=EDGE_LOOP('',(#269,#270,#271,#272));
#65=EDGE_LOOP('',(#273,#274,#275,#276));
#66=EDGE_LOOP('',(#277,#278,#279,#280));
#67=EDGE_LOOP('',(#281,#282,#283,#284));
#68=EDGE_LOOP('',(#285,#286,#287,#288));
#69=EDGE_LOOP('',(#289));
#70=EDGE_LOOP('',(#290));
#71=EDGE_LOOP('',(#291,#292,#293,#294));
#72=EDGE_LOOP('',(#295,#296,#297,#298,#299,#300,#301,#302,#303,#304));
#73=EDGE_LOOP('',(#305,#306,#307,#308));
#74=EDGE_LOOP('',(#309));
#75=EDGE_LOOP('',(#310));
#76=EDGE_LOOP('',(#311,#312,#313,#314,#315));
#77=LINE('',#478,#114);
#78=LINE('',#480,#115);
#79=LINE('',#482,#116);
#80=LINE('',#483,#117);
#81=LINE('',#491,#118);
#82=LINE('',#493,#119);
#83=LINE('',#495,#120);
#84=LINE('',#496,#121);
#85=LINE('',#502,#122);
#86=LINE('',#504,#123);
#87=LINE('',#506,#124);
#88=LINE('',#507,#125);
#89=LINE('',#510,#126);
#90=LINE('',#512,#127);
#91=LINE('',#514,#128);
#92=LINE('',#516,#129);
#93=LINE('',#518,#130);
#94=LINE('',#520,#131);
#95=LINE('',#521,#132);
#96=LINE('',#524,#133);
#97=LINE('',#526,#134);
#98=LINE('',#527,#135);
#99=LINE('',#532,#136);
#100=LINE('',#538,#137);
#101=LINE('',#542,#138);
#102=LINE('',#543,#139);
#103=LINE('',#546,#140);
#104=LINE('',#547,#141);
#105=LINE('',#550,#142);
#106=LINE('',#552,#143);
#107=LINE('',#553,#144);
#108=LINE('',#555,#145);
#109=LINE('',#558,#146);
#110=LINE('',#559,#147);
#111=LINE('',#562,#148);
#112=LINE('',#563,#149);
#113=LINE('',#565,#150);
#114=VECTOR('',#389,10.);
#115=VECTOR('',#390,10.);
#116=VECTOR('',#391,10.);
#117=VECTOR('',#392,10.);
#118=VECTOR('',#399,10.);
#119=VECTOR('',#400,10.);
#120=VECTOR('',#401,10.);
#121=VECTOR('',#402,10.);
#122=VECTOR('',#409,1.5);
#123=VECTOR('',#412,1.5);
#124=VECTOR('',#415,10.);
#125=VECTOR('',#416,10.);
#126=VECTOR('',#419,10.);
#127=VECTOR('',#420,10.);
#128=VECTOR('',#421,10.);
#129=VECTOR('',#422,10.);
#130=VECTOR('',#423,10.);
#131=VECTOR('',#424,10.);
#132=VECTOR('',#425,10.);
#133=VECTOR('',#428,10.);
#134=VECTOR('',#429,10.);
#135=VECTOR('',#430,10.);
#136=VECTOR('',#435,1.5);
#137=VECTOR('',#442,1.5);
#138=VECTOR('',#447,10.);
#139=VECTOR('',#448,10.);
#140=VECTOR('',#451,10.);
#141=VECTOR('',#452,10.);
#142=VECTOR('',#455,10.);
#143=VECTOR('',#456,10.);
#144=VECTOR('',#457,10.);
#145=VECTOR('',#460,10.);
#146=VECTOR('',#463,10.);
#147=VECTOR('',#464,10.);
#148=VECTOR('',#467,10.);
#149=VECTOR('',#468,10.);
#150=VECTOR('',#471,10.);
#151=VERTEX_POINT('',#476);
#152=VERTEX_POINT('',#477);
#153=VERTEX_POINT('',#479);
#154=VERTEX_POINT('',#481);
#155=VERTEX_POINT('',#484);
#156=VERTEX_POINT('',#486);
#157=VERTEX_POINT('',#489);
#158=VERTEX_POINT('',#490);
#159=VERTEX_POINT('',#492);
#160=VERTEX_POINT('',#494);
#161=VERTEX_POINT('',#497);
#162=VERTEX_POINT('',#499);
#163=VERTEX_POINT('',#509);
#164=VERTEX_POINT('',#511);
#165=VERTEX_POINT('',#513);
#166=VERTEX_POINT('',#515);
#167=VERTEX_POINT('',#517);
#168=VERTEX_POINT('',#519);
#169=VERTEX_POINT('',#523);
#170=VERTEX_POINT('',#525);
#171=VERTEX_POINT('',#529);
#172=VERTEX_POINT('',#531);
#173=VERTEX_POINT('',#535);
#174=VERTEX_POINT('',#537);
#175=VERTEX_POINT('',#541);
#176=VERTEX_POINT('',#545);
#177=VERTEX_POINT('',#549);
#178=VERTEX_POINT('',#551);
#179=VERTEX_POINT('',#557);
#180=VERTEX_POINT('',#561);
#181=EDGE_CURVE('',#151,#152,#77,.T.);
#182=EDGE_CURVE('',#153,#151,#78,.T.);
#183=EDGE_CURVE('',#154,#153,#79,.T.);
#184=EDGE_CURVE('',#152,#154,#80,.T.);
#185=EDGE_CURVE('',#155,#155,#31,.T.);
#186=EDGE_CURVE('',#156,#156,#32,.T.);
#187=EDGE_CURVE('',#157,#158,#81,.T.);
#188=EDGE_CURVE('',#159,#157,#82,.T.);
#189=EDGE_CURVE('',#160,#159,#83,.T.);
#190=EDGE_CURVE('',#160,#158,#84,.T.);
#191=EDGE_CURVE('',#161,#161,#19,.T.);
#192=EDGE_CURVE('',#162,#162,#20,.T.);
#193=EDGE_CURVE('',#156,#162,#85,.T.);
#194=EDGE_CURVE('',#155,#161,#86,.T.);
#195=EDGE_CURVE('',#159,#154,#87,.T.);
#196=EDGE_CURVE('',#153,#160,#88,.T.);
#197=EDGE_CURVE('',#151,#163,#89,.T.);
#198=EDGE_CURVE('',#164,#163,#90,.T.);
#199=EDGE_CURVE('',#165,#164,#91,.T.);
#200=EDGE_CURVE('',#165,#166,#92,.T.);
#201=EDGE_CURVE('',#167,#166,#93,.T.);
#202=EDGE_CURVE('',#167,#168,#94,.T.);
#203=EDGE_CURVE('',#168,#158,#95,.T.);
#204=EDGE_CURVE('',#169,#168,#96,.T.);
#205=EDGE_CURVE('',#170,#169,#97,.T.);
#206=EDGE_CURVE('',#170,#157,#98,.T.);
#207=EDGE_CURVE('',#171,#171,#33,.T.);
#208=EDGE_CURVE('',#171,#172,#99,.T.);
#209=EDGE_CURVE('',#172,#172,#21,.T.);
#210=EDGE_CURVE('',#173,#173,#34,.T.);
#211=EDGE_CURVE('',#173,#174,#100,.T.);
#212=EDGE_CURVE('',#174,#174,#22,.T.);
#213=EDGE_CURVE('',#152,#175,#101,.T.);
#214=EDGE_CURVE('',#163,#175,#102,.T.);
#215=EDGE_CURVE('',#176,#164,#103,.T.);
#216=EDGE_CURVE('',#175,#176,#104,.T.);
#217=EDGE_CURVE('',#177,#169,#105,.T.);
#218=EDGE_CURVE('',#178,#177,#106,.T.);
#219=EDGE_CURVE('',#178,#170,#107,.T.);
#220=EDGE_CURVE('',#177,#167,#108,.T.);
#221=EDGE_CURVE('',#179,#176,#109,.T.);
#222=EDGE_CURVE('',#179,#165,#110,.T.);
#223=EDGE_CURVE('',#180,#178,#111,.T.);
#224=EDGE_CURVE('',#180,#179,#112,.T.);
#225=EDGE_CURVE('',#166,#180,#113,.T.);
#226=ORIENTED_EDGE('',*,*,#181,.F.);
#227=ORIENTED_EDGE('',*,*,#182,.F.);
#228=ORIENTED_EDGE('',*,*,#183,.F.);
#229=ORIENTED_EDGE('',*,*,#184,.F.);
#230=ORIENTED_EDGE('',*,*,#185,.T.);
#231=ORIENTED_EDGE('',*,*,#186,.T.);
#232=ORIENTED_EDGE('',*,*,#187,.F.);
#233=ORIENTED_EDGE('',*,*,#188,.F.);
#234=ORIENTED_EDGE('',*,*,#189,.F.);
#235=ORIENTED_EDGE('',*,*,#190,.T.);
#236=ORIENTED_EDGE('',*,*,#191,.T.);
#237=ORIENTED_EDGE('',*,*,#192,.T.);
#238=ORIENTED_EDGE('',*,*,#186,.F.);
#239=ORIENTED_EDGE('',*,*,#193,.T.);
#240=ORIENTED_EDGE('',*,*,#192,.F.);
#241=ORIENTED_EDGE('',*,*,#193,.F.);
#242=ORIENTED_EDGE('',*,*,#185,.F.);
#243=ORIENTED_EDGE('',*,*,#194,.T.);
#244=ORIENTED_EDGE('',*,*,#191,.F.);
#245=ORIENTED_EDGE('',*,*,#194,.F.);
#246=ORIENTED_EDGE('',*,*,#195,.T.);
#247=ORIENTED_EDGE('',*,*,#183,.T.);
#248=ORIENTED_EDGE('',*,*,#196,.T.);
#249=ORIENTED_EDGE('',*,*,#189,.T.);
#250=ORIENTED_EDGE('',*,*,#197,.T.);
#251=ORIENTED_EDGE('',*,*,#198,.F.);
#252=ORIENTED_EDGE('',*,*,#199,.F.);
#253=ORIENTED_EDGE('',*,*,#200,.T.);
#254=ORIENTED_EDGE('',*,*,#201,.F.);
#255=ORIENTED_EDGE('',*,*,#202,.T.);
#256=ORIENTED_EDGE('',*,*,#203,.T.);
#257=ORIENTED_EDGE('',*,*,#190,.F.);
#258=ORIENTED_EDGE('',*,*,#196,.F.);
#259=ORIENTED_EDGE('',*,*,#182,.T.);
#260=ORIENTED_EDGE('',*,*,#187,.T.);
#261=ORIENTED_EDGE('',*,*,#203,.F.);
#262=ORIENTED_EDGE('',*,*,#204,.F.);
#263=ORIENTED_EDGE('',*,*,#205,.F.);
#264=ORIENTED_EDGE('',*,*,#206,.T.);
#265=ORIENTED_EDGE('',*,*,#207,.F.);
#266=ORIENTED_EDGE('',*,*,#208,.T.);
#267=ORIENTED_EDGE('',*,*,#209,.F.);
#268=ORIENTED_EDGE('',*,*,#208,.F.);
#269=ORIENTED_EDGE('',*,*,#210,.F.);
#270=ORIENTED_EDGE('',*,*,#211,.T.);
#271=ORIENTED_EDGE('',*,*,#212,.F.);
#272=ORIENTED_EDGE('',*,*,#211,.F.);
#273=ORIENTED_EDGE('',*,*,#181,.T.);
#274=ORIENTED_EDGE('',*,*,#213,.T.);
#275=ORIENTED_EDGE('',*,*,#214,.F.);
#276=ORIENTED_EDGE('',*,*,#197,.F.);
#277=ORIENTED_EDGE('',*,*,#215,.T.);
#278=ORIENTED_EDGE('',*,*,#198,.T.);
#279=ORIENTED_EDGE('',*,*,#214,.T.);
#280=ORIENTED_EDGE('',*,*,#216,.T.);
#281=ORIENTED_EDGE('',*,*,#205,.T.);
#282=ORIENTED_EDGE('',*,*,#217,.F.);
#283=ORIENTED_EDGE('',*,*,#218,.F.);
#284=ORIENTED_EDGE('',*,*,#219,.T.);
#285=ORIENTED_EDGE('',*,*,#204,.T.);
#286=ORIENTED_EDGE('',*,*,#202,.F.);
#287=ORIENTED_EDGE('',*,*,#220,.F.);
#288=ORIENTED_EDGE('',*,*,#217,.T.);
#289=ORIENTED_EDGE('',*,*,#209,.T.);
#290=ORIENTED_EDGE('',*,*,#212,.T.);
#291=ORIENTED_EDGE('',*,*,#199,.T.);
#292=ORIENTED_EDGE('',*,*,#215,.F.);
#293=ORIENTED_EDGE('',*,*,#221,.F.);
#294=ORIENTED_EDGE('',*,*,#222,.T.);
#295=ORIENTED_EDGE('',*,*,#221,.T.);
#296=ORIENTED_EDGE('',*,*,#216,.F.);
#297=ORIENTED_EDGE('',*,*,#213,.F.);
#298=ORIENTED_EDGE('',*,*,#184,.T.);
#299=ORIENTED_EDGE('',*,*,#195,.F.);
#300=ORIENTED_EDGE('',*,*,#188,.T.);
#301=ORIENTED_EDGE('',*,*,#206,.F.);
#302=ORIENTED_EDGE('',*,*,#219,.F.);
#303=ORIENTED_EDGE('',*,*,#223,.F.);
#304=ORIENTED_EDGE('',*,*,#224,.T.);
#305=ORIENTED_EDGE('',*,*,#224,.F.);
#306=ORIENTED_EDGE('',*,*,#225,.F.);
#307=ORIENTED_EDGE('',*,*,#200,.F.);
#308=ORIENTED_EDGE('',*,*,#222,.F.);
#309=ORIENTED_EDGE('',*,*,#207,.T.);
#310=ORIENTED_EDGE('',*,*,#210,.T.);
#311=ORIENTED_EDGE('',*,*,#201,.T.);
#312=ORIENTED_EDGE('',*,*,#225,.T.);
#313=ORIENTED_EDGE('',*,*,#223,.T.);
#314=ORIENTED_EDGE('',*,*,#218,.T.);
#315=ORIENTED_EDGE('',*,*,#220,.T.);
#316=PLANE('',#360);
#317=PLANE('',#363);
#318=PLANE('',#368);
#319=PLANE('',#369);
#320=PLANE('',#370);
#321=PLANE('',#377);
#322=PLANE('',#378);
#323=PLANE('',#379);
#324=PLANE('',#380);
#325=PLANE('',#381);
#326=PLANE('',#382);
#327=PLANE('',#383);
#328=PLANE('',#384);
#329=ADVANCED_FACE('',(#35,#23,#24),#316,.T.);
#330=ADVANCED_FACE('',(#36,#25,#26),#317,.T.);
#331=ADVANCED_FACE('',(#37),#15,.F.);
#332=ADVANCED_FACE('',(#38),#16,.F.);
#333=ADVANCED_FACE('',(#39),#318,.T.);
#334=ADVANCED_FACE('',(#40),#319,.T.);
#335=ADVANCED_FACE('',(#41),#320,.T.);
#336=ADVANCED_FACE('',(#42),#17,.F.);
#337=ADVANCED_FACE('',(#43),#18,.F.);
#338=ADVANCED_FACE('',(#44),#321,.T.);
#339=ADVANCED_FACE('',(#45),#322,.T.);
#340=ADVANCED_FACE('',(#46),#323,.T.);
#341=ADVANCED_FACE('',(#47,#27,#28),#324,.T.);
#342=ADVANCED_FACE('',(#48),#325,.T.);
#343=ADVANCED_FACE('',(#49),#326,.T.);
#344=ADVANCED_FACE('',(#50,#29,#30),#327,.T.);
#345=ADVANCED_FACE('',(#51),#328,.T.);
#346=CLOSED_SHELL('',(#329,#330,#331,#332,#333,#334,#335,#336,#337,#338,
#339,#340,#341,#342,#343,#344,#345));
#347=DERIVED_UNIT_ELEMENT(#349,1.);
#348=DERIVED_UNIT_ELEMENT(#572,-3.);
#349=(
MASS_UNIT()
NAMED_UNIT(*)
SI_UNIT(.KILO.,.GRAM.)
);
#350=DERIVED_UNIT((#347,#348));
#351=MEASURE_REPRESENTATION_ITEM('density measure',
POSITIVE_RATIO_MEASURE(952.),#350);
#352=PROPERTY_DEFINITION_REPRESENTATION(#357,#354);
#353=PROPERTY_DEFINITION_REPRESENTATION(#358,#355);
#354=REPRESENTATION('material name',(#356),#569);
#355=REPRESENTATION('density',(#351),#569);
#356=DESCRIPTIVE_REPRESENTATION_ITEM('Plastic, Opaque Black',
'Plastic, Opaque Black');
#357=PROPERTY_DEFINITION('material property','material name',#579);
#358=PROPERTY_DEFINITION('material property','density of part',#579);
#359=AXIS2_PLACEMENT_3D('',#474,#385,#386);
#360=AXIS2_PLACEMENT_3D('',#475,#387,#388);
#361=AXIS2_PLACEMENT_3D('',#485,#393,#394);
#362=AXIS2_PLACEMENT_3D('',#487,#395,#396);
#363=AXIS2_PLACEMENT_3D('',#488,#397,#398);
#364=AXIS2_PLACEMENT_3D('',#498,#403,#404);
#365=AXIS2_PLACEMENT_3D('',#500,#405,#406);
#366=AXIS2_PLACEMENT_3D('',#501,#407,#408);
#367=AXIS2_PLACEMENT_3D('',#503,#410,#411);
#368=AXIS2_PLACEMENT_3D('',#505,#413,#414);
#369=AXIS2_PLACEMENT_3D('',#508,#417,#418);
#370=AXIS2_PLACEMENT_3D('',#522,#426,#427);
#371=AXIS2_PLACEMENT_3D('',#528,#431,#432);
#372=AXIS2_PLACEMENT_3D('',#530,#433,#434);
#373=AXIS2_PLACEMENT_3D('',#533,#436,#437);
#374=AXIS2_PLACEMENT_3D('',#534,#438,#439);
#375=AXIS2_PLACEMENT_3D('',#536,#440,#441);
#376=AXIS2_PLACEMENT_3D('',#539,#443,#444);
#377=AXIS2_PLACEMENT_3D('',#540,#445,#446);
#378=AXIS2_PLACEMENT_3D('',#544,#449,#450);
#379=AXIS2_PLACEMENT_3D('',#548,#453,#454);
#380=AXIS2_PLACEMENT_3D('',#554,#458,#459);
#381=AXIS2_PLACEMENT_3D('',#556,#461,#462);
#382=AXIS2_PLACEMENT_3D('',#560,#465,#466);
#383=AXIS2_PLACEMENT_3D('',#564,#469,#470);
#384=AXIS2_PLACEMENT_3D('',#566,#472,#473);
#385=DIRECTION('axis',(0.,0.,1.));
#386=DIRECTION('refdir',(1.,0.,0.));
#387=DIRECTION('center_axis',(1.22766821330351E-14,1.,-5.97220384754083E-15));
#388=DIRECTION('ref_axis',(-0.707106781186542,4.45793934751625E-15,-0.707106781186553));
#389=DIRECTION('',(0.707106781186543,-4.45793934751627E-15,0.707106781186552));
#390=DIRECTION('',(0.707106781186553,-1.29015980613308E-14,-0.707106781186542));
#391=DIRECTION('',(-0.707106781186542,4.45793934751625E-15,-0.707106781186553));
#392=DIRECTION('',(-0.707106781186553,1.29039110259654E-14,0.707106781186542));
#393=DIRECTION('center_axis',(-1.22766821330351E-14,-1.,5.97220384754083E-15));
#394=DIRECTION('ref_axis',(-1.,5.03795228141194E-15,-4.81096644004233E-15));
#395=DIRECTION('center_axis',(-1.22766821330351E-14,-1.,5.97220384754083E-15));
#396=DIRECTION('ref_axis',(-1.,5.03795228141194E-15,-4.81096644004233E-15));
#397=DIRECTION('center_axis',(0.0420654698982762,-0.998228927894034,0.0420654698982952));
#398=DIRECTION('ref_axis',(0.705854444090443,0.0594895580377528,0.705854444090454));
#399=DIRECTION('',(-0.705854444090444,-0.0594895580377528,-0.705854444090453));
#400=DIRECTION('',(0.707106781186553,-1.29015980613308E-14,-0.707106781186542));
#401=DIRECTION('',(0.705854444090443,0.0594895580377528,0.705854444090454));
#402=DIRECTION('',(0.707106781186553,-1.29015980613308E-14,-0.707106781186542));
#403=DIRECTION('center_axis',(-0.0420654698982762,0.998228927894034,-0.0420654698982952));
#404=DIRECTION('ref_axis',(-0.705854444090415,-0.0594895580377528,-0.705854444090482));
#405=DIRECTION('center_axis',(-0.0420654698982762,0.998228927894034,-0.0420654698982952));
#406=DIRECTION('ref_axis',(-0.705854444090415,-0.0594895580377528,-0.705854444090482));
#407=DIRECTION('center_axis',(-5.03795228141199E-15,-1.,1.04632718964675E-14));
#408=DIRECTION('ref_axis',(-1.,5.03795228141194E-15,-4.81096644004233E-15));
#409=DIRECTION('',(-5.03795228141199E-15,-1.,1.04632718964675E-14));
#410=DIRECTION('center_axis',(-5.03795228141199E-15,-1.,1.04632718964675E-14));
#411=DIRECTION('ref_axis',(-1.,5.03795228141194E-15,-4.81096644004233E-15));
#412=DIRECTION('',(-5.03795228141199E-15,-1.,1.04632718964675E-14));
#413=DIRECTION('center_axis',(-0.707106781186553,1.29039110259654E-14,0.707106781186542));
#414=DIRECTION('ref_axis',(0.707106781186542,4.37457024124362E-15,0.707106781186553));
#415=DIRECTION('',(1.19266218501668E-14,1.,-6.31996243519862E-15));
#416=DIRECTION('',(-5.10251853960447E-15,-1.,1.24930719091665E-14));
#417=DIRECTION('center_axis',(-0.707106781186543,4.16566732375943E-15,-0.707106781186552));
#418=DIRECTION('ref_axis',(-1.12930210854314E-14,-1.,5.40187785983624E-15));
#419=DIRECTION('',(0.,1.,0.));
#420=DIRECTION('',(-0.707106781186552,0.,0.707106781186543));
#421=DIRECTION('',(1.12930210854314E-14,1.,-5.40187785983624E-15));
#422=DIRECTION('',(-0.707106781186552,1.18047932540222E-14,0.707106781186543));
#423=DIRECTION('',(-1.12930210854314E-14,-1.,5.40187785983624E-15));
#424=DIRECTION('',(0.707106781186552,-1.18053714951808E-14,-0.707106781186543));
#425=DIRECTION('',(0.,1.,0.));
#426=DIRECTION('center_axis',(-0.707106781186552,0.,0.707106781186543));
#427=DIRECTION('ref_axis',(0.707106781186543,0.,0.707106781186552));
#428=DIRECTION('',(-0.705687574579931,0.0633253043180548,-0.705687574579941));
#429=DIRECTION('',(-0.707106781186543,-4.2707991153333E-15,-0.707106781186552));
#430=DIRECTION('',(0.,1.,0.));
#431=DIRECTION('center_axis',(4.98411627100167E-15,1.,-1.04799944805437E-14));
#432=DIRECTION('ref_axis',(1.,-4.98411627100164E-15,3.21964677141295E-15));
#433=DIRECTION('center_axis',(5.47447083226458E-15,1.,-1.1220027888584E-14));
#434=DIRECTION('ref_axis',(1.,-4.98411627100164E-15,3.21964677141295E-15));
#435=DIRECTION('',(4.98411627100167E-15,1.,-1.04799944805437E-14));
#436=DIRECTION('center_axis',(-0.0447777521040064,-0.997992938769121,-0.0447777521039903));
#437=DIRECTION('ref_axis',(0.705687574579933,-0.0633253043180548,0.705687574579939));
#438=DIRECTION('center_axis',(4.98411627100167E-15,1.,-1.04831234597875E-14));
#439=DIRECTION('ref_axis',(1.,-4.98411627100164E-15,3.21964677141295E-15));
#440=DIRECTION('center_axis',(5.47447083226458E-15,1.,-1.1220027888584E-14));
#441=DIRECTION('ref_axis',(1.,-4.98411627100164E-15,3.21964677141295E-15));
#442=DIRECTION('',(4.98411627100167E-15,1.,-1.04831234597875E-14));
#443=DIRECTION('center_axis',(-0.0447777521040064,-0.997992938769121,-0.0447777521039903));
#444=DIRECTION('ref_axis',(0.705687574579933,-0.0633253043180548,0.705687574579939));
#445=DIRECTION('center_axis',(-0.707106781186552,0.,0.707106781186543));
#446=DIRECTION('ref_axis',(0.707106781186543,0.,0.707106781186552));
#447=DIRECTION('',(0.,1.,0.));
#448=DIRECTION('',(0.707106781186543,0.,0.707106781186552));
#449=DIRECTION('center_axis',(0.,1.,0.));
#450=DIRECTION('ref_axis',(0.,0.,1.));
#451=DIRECTION('',(-0.707106781186543,0.,-0.707106781186552));
#452=DIRECTION('',(0.707106781186552,0.,-0.707106781186543));
#453=DIRECTION('center_axis',(5.32733834488668E-15,1.,-1.13671603759619E-14));
#454=DIRECTION('ref_axis',(-0.707106781186543,-4.2707991153333E-15,-0.707106781186552));
#455=DIRECTION('',(0.707106781186552,-1.18053714951808E-14,-0.707106781186543));
#456=DIRECTION('',(-0.707106781186543,-4.27079911533329E-15,-0.707106781186552));
#457=DIRECTION('',(0.707106781186552,-1.18053714951808E-14,-0.707106781186543));
#458=DIRECTION('center_axis',(0.0447777521040064,0.997992938769121,0.0447777521039903));
#459=DIRECTION('ref_axis',(-0.705687574579931,0.0633253043180548,-0.705687574579941));
#460=DIRECTION('',(-0.705687574579931,0.0633253043180548,-0.705687574579941));
#461=DIRECTION('center_axis',(0.707106781186552,-1.18053714951808E-14,-0.707106781186543));
#462=DIRECTION('ref_axis',(-0.707106781186543,0.,-0.707106781186552));
#463=DIRECTION('',(0.,1.,0.));
#464=DIRECTION('',(-0.707106781186543,-4.06272235621778E-15,-0.707106781186552));
#465=DIRECTION('center_axis',(0.707106781186543,3.94745961859176E-15,0.707106781186552));
#466=DIRECTION('ref_axis',(5.96995455043343E-15,1.,-1.15525054799659E-14));
#467=DIRECTION('',(5.96995455043343E-15,1.,-1.15525054799659E-14));
#468=DIRECTION('',(0.707106781186552,-1.18053714951808E-14,-0.707106781186543));
#469=DIRECTION('center_axis',(-5.47447083226458E-15,-1.,1.1220027888584E-14));
#470=DIRECTION('ref_axis',(0.707106781186543,4.06272235621778E-15,0.707106781186552));
#471=DIRECTION('',(0.707106781186543,4.06272235621778E-15,0.707106781186552));
#472=DIRECTION('center_axis',(-0.707106781186552,1.18047932540222E-14,0.707106781186543));
#473=DIRECTION('ref_axis',(0.707106781186543,0.,0.707106781186552));
#474=CARTESIAN_POINT('',(0.,0.,0.));
#475=CARTESIAN_POINT('Origin',(121.762410473754,189.792837390897,-2.14870460045354));
#476=CARTESIAN_POINT('',(107.62027485002,189.792837390897,-44.5751114716423));
#477=CARTESIAN_POINT('',(135.904546097481,189.792837390897,-16.2908402241806));
#478=CARTESIAN_POINT('',(121.762410473751,189.792837390897,-30.4329758479105));
#479=CARTESIAN_POINT('',(84.9928578520538,189.792837390898,-21.9476944736769));
#480=CARTESIAN_POINT('',(93.4781392262924,189.792837390898,-30.4329758479154));
#481=CARTESIAN_POINT('',(113.277129099515,189.792837390898,6.33657677378498));
#482=CARTESIAN_POINT('',(113.277129099515,189.792837390898,6.33657677378498));
#483=CARTESIAN_POINT('',(121.762410473754,189.792837390897,-2.14870460045354));
#484=CARTESIAN_POINT('',(114.870102641682,189.792837390897,-0.481469486925477));
#485=CARTESIAN_POINT('Origin',(113.370102641682,189.792837390897,-0.481469486925477));
#486=CARTESIAN_POINT('',(94.4898327285825,189.792837390897,-23.3397266929268));
#487=CARTESIAN_POINT('Origin',(92.9898327285825,189.792837390897,-23.3397266929268));
#488=CARTESIAN_POINT('Origin',(93.4781392262924,178.880676486424,-30.4329758479152));
#489=CARTESIAN_POINT('',(135.904546097481,181.264480697077,-16.2908402241806));
#490=CARTESIAN_POINT('',(107.62027485002,178.880676486424,-44.5751114716423));
#491=CARTESIAN_POINT('',(103.868937866181,178.564513032205,-48.3264484554813));
#492=CARTESIAN_POINT('',(113.277129099515,181.264480697078,6.33657677378498));
#493=CARTESIAN_POINT('',(121.762410473754,181.264480697078,-2.14870460045351));
#494=CARTESIAN_POINT('',(84.9928578520537,178.880676486424,-21.9476944736767));
#495=CARTESIAN_POINT('',(113.277129099515,181.264480697078,6.33657677378498));
#496=CARTESIAN_POINT('',(93.4781392262923,178.880676486424,-30.4329758479152));
#497=CARTESIAN_POINT('',(114.870102641682,181.044295594226,-0.481469486925396));
#498=CARTESIAN_POINT('Origin',(113.370102641682,180.981085439637,-0.481469486925405));
#499=CARTESIAN_POINT('',(94.4898327285825,179.222219605292,-23.3397266929267));
#500=CARTESIAN_POINT('Origin',(92.9898327285825,179.159009450703,-23.3397266929267));
#501=CARTESIAN_POINT('Origin',(92.9898327285825,194.792837390898,-23.3397266929269));
#502=CARTESIAN_POINT('',(94.4898327285826,194.792837390898,-23.3397266929269));
#503=CARTESIAN_POINT('Origin',(113.370102641682,194.792837390898,-0.481469486925548));
#504=CARTESIAN_POINT('',(114.870102641682,194.792837390898,-0.48146948692554));
#505=CARTESIAN_POINT('Origin',(99.1349934757844,184.336756938661,-7.80555884994588));
#506=CARTESIAN_POINT('',(113.277129099515,189.792837390898,6.33657677378498));
#507=CARTESIAN_POINT('',(84.9928578520538,189.792837390898,-21.9476944736769));
#508=CARTESIAN_POINT('Origin',(93.47813922629,11.1178909408214,-30.4329758479103));
#509=CARTESIAN_POINT('',(107.620274850021,189.793162609099,-44.5751114716411));
#510=CARTESIAN_POINT('',(107.620274850021,0.207162609098792,-44.5751114716411));
#511=CARTESIAN_POINT('',(114.691342661886,189.793162609099,-51.6461792835065));
#512=CARTESIAN_POINT('',(114.691342661886,189.793162609099,-51.6461792835065));
#513=CARTESIAN_POINT('',(114.691342661886,0.207162609098463,-51.6461792835065));
#514=CARTESIAN_POINT('',(114.691342661886,0.207162609098463,-51.6461792835065));
#515=CARTESIAN_POINT('',(84.9928578520512,0.207162609098959,-21.9476944736717));
#516=CARTESIAN_POINT('',(93.4781392262899,0.207162609098817,-30.4329758479102));
#517=CARTESIAN_POINT('',(84.9928578520513,11.1178909408215,-21.9476944736718));
#518=CARTESIAN_POINT('',(84.9928578520512,0.207162609098959,-21.9476944736717));
#519=CARTESIAN_POINT('',(107.620274850021,11.1178909408212,-44.5751114716411));
#520=CARTESIAN_POINT('',(93.47813922629,11.1178909408214,-30.4329758479103));
#521=CARTESIAN_POINT('',(107.620274850021,0.207162609098792,-44.5751114716411));
#522=CARTESIAN_POINT('Origin',(107.620274850021,0.207162609098792,-44.5751114716411));
#523=CARTESIAN_POINT('',(134.43400870411,8.71174420198381,-17.7613776175514));
#524=CARTESIAN_POINT('',(121.270930438523,9.89294104738225,-30.9244558831388));
#525=CARTESIAN_POINT('',(135.904546097482,8.71174420198382,-16.2908402241793));
#526=CARTESIAN_POINT('',(121.762410473752,8.71174420198374,-30.4329758479102));
#527=CARTESIAN_POINT('',(135.904546097482,0.207162609098792,-16.2908402241793));
#528=CARTESIAN_POINT('Origin',(92.989832728583,-4.79283739090245,-23.3397266929248));
#529=CARTESIAN_POINT('',(91.489832728583,0.207162609098901,-23.3397266929248));
#530=CARTESIAN_POINT('Origin',(92.989832728583,0.207162609098893,-23.3397266929248));
#531=CARTESIAN_POINT('',(91.4898327285831,10.8888433715123,-23.3397266929249));
#532=CARTESIAN_POINT('',(91.489832728583,-4.79283739090244,-23.3397266929248));
#533=CARTESIAN_POINT('Origin',(92.9898327285831,10.8215416647098,-23.3397266929249));
#534=CARTESIAN_POINT('Origin',(113.370102641683,-4.79283739090231,-0.481469486923451));
#535=CARTESIAN_POINT('',(111.870102641683,0.207162609099039,-0.481469486923509));
#536=CARTESIAN_POINT('Origin',(113.370102641683,0.207162609099032,-0.481469486923504));
#537=CARTESIAN_POINT('',(111.870102641683,8.94882558835145,-0.481469486923599));
#538=CARTESIAN_POINT('',(111.870102641683,-4.79283739090231,-0.481469486923456));
#539=CARTESIAN_POINT('Origin',(113.370102641683,8.88152388154895,-0.481469486923595));
#540=CARTESIAN_POINT('Origin',(107.620274850021,0.207162609098792,-44.5751114716411));
#541=CARTESIAN_POINT('',(135.904546097482,189.793162609099,-16.2908402241793));
#542=CARTESIAN_POINT('',(135.904546097482,0.207162609098792,-16.2908402241793));
#543=CARTESIAN_POINT('',(107.620274850021,189.793162609099,-44.5751114716411));
#544=CARTESIAN_POINT('Origin',(125.297944379684,189.793162609099,-33.9685097538429));
#545=CARTESIAN_POINT('',(142.975613909348,189.793162609099,-23.3619080360448));
#546=CARTESIAN_POINT('',(114.691342661886,189.793162609099,-51.6461792835065));
#547=CARTESIAN_POINT('',(142.975613909348,189.793162609099,-23.3619080360448));
#548=CARTESIAN_POINT('Origin',(121.762410473751,8.71174420198406,-2.14870460044859));
#549=CARTESIAN_POINT('',(111.806591706141,8.71174420198419,4.86603938041793));
#550=CARTESIAN_POINT('',(120.291873080379,8.71174420198405,-3.61924199382059));
#551=CARTESIAN_POINT('',(113.277129099513,8.7117442019842,6.33657677378992));
#552=CARTESIAN_POINT('',(113.277129099513,8.7117442019842,6.33657677378992));
#553=CARTESIAN_POINT('',(121.762410473751,8.71174420198406,-2.14870460044859));
#554=CARTESIAN_POINT('Origin',(120.291873080379,8.71174420198405,-3.61924199382059));
#555=CARTESIAN_POINT('',(111.806591706141,8.71174420198419,4.86603938041793));
#556=CARTESIAN_POINT('Origin',(128.833478285617,5.66252677495975,-37.5040436597757));
#557=CARTESIAN_POINT('',(142.975613909348,0.207162609098625,-23.3619080360448));
#558=CARTESIAN_POINT('',(142.975613909348,0.207162609098792,-23.3619080360448));
#559=CARTESIAN_POINT('',(114.691342661886,0.207162609098463,-51.6461792835065));
#560=CARTESIAN_POINT('Origin',(121.762410473751,0.20716260909898,-2.1487046004485));
#561=CARTESIAN_POINT('',(113.277129099513,0.207162609099121,6.33657677379002));
#562=CARTESIAN_POINT('',(113.277129099513,0.207162609099121,6.33657677379002));
#563=CARTESIAN_POINT('',(121.762410473751,0.20716260909898,-2.1487046004485));
#564=CARTESIAN_POINT('Origin',(93.4781392262899,0.207162609098817,-30.4329758479102));
#565=CARTESIAN_POINT('',(84.9928578520512,0.207162609098959,-21.9476944736717));
#566=CARTESIAN_POINT('Origin',(99.134993475782,5.66252677496025,-7.80555884994088));
#567=UNCERTAINTY_MEASURE_WITH_UNIT(LENGTH_MEASURE(0.01),#571,
'DISTANCE_ACCURACY_VALUE',
'Maximum model space distance between geometric entities at asserted c
onnectivities');
#568=UNCERTAINTY_MEASURE_WITH_UNIT(LENGTH_MEASURE(0.01),#571,
'DISTANCE_ACCURACY_VALUE',
'Maximum model space distance between geometric entities at asserted c
onnectivities');
#569=(
GEOMETRIC_REPRESENTATION_CONTEXT(3)
GLOBAL_UNCERTAINTY_ASSIGNED_CONTEXT((#567))
GLOBAL_UNIT_ASSIGNED_CONTEXT((#571,#573,#574))
REPRESENTATION_CONTEXT('','3D')
);
#570=(
GEOMETRIC_REPRESENTATION_CONTEXT(3)
GLOBAL_UNCERTAINTY_ASSIGNED_CONTEXT((#568))
GLOBAL_UNIT_ASSIGNED_CONTEXT((#571,#573,#574))
REPRESENTATION_CONTEXT('','3D')
);
#571=(
LENGTH_UNIT()
NAMED_UNIT(*)
SI_UNIT(.MILLI.,.METRE.)
);
#572=(
LENGTH_UNIT()
NAMED_UNIT(*)
SI_UNIT($,.METRE.)
);
#573=(
NAMED_UNIT(*)
PLANE_ANGLE_UNIT()
SI_UNIT($,.RADIAN.)
);
#574=(
NAMED_UNIT(*)
SI_UNIT($,.STERADIAN.)
SOLID_ANGLE_UNIT()
);
#575=SHAPE_DEFINITION_REPRESENTATION(#576,#577);
#576=PRODUCT_DEFINITION_SHAPE('',$,#579);
#577=SHAPE_REPRESENTATION('',(#359),#569);
#578=PRODUCT_DEFINITION_CONTEXT('part definition',#583,'design');
#579=PRODUCT_DEFINITION('Cross brace','Cross brace',#580,#578);
#580=PRODUCT_DEFINITION_FORMATION('',$,#585);
#581=PRODUCT_RELATED_PRODUCT_CATEGORY('Cross brace','Cross brace',(#585));
#582=APPLICATION_PROTOCOL_DEFINITION('international standard',
'automotive_design',2009,#583);
#583=APPLICATION_CONTEXT(
'Core Data for Automotive Mechanical Design Process');
#584=PRODUCT_CONTEXT('part definition',#583,'mechanical');
#585=PRODUCT('Cross brace','Cross brace',$,(#584));
#586=PRESENTATION_STYLE_ASSIGNMENT((#587));
#587=SURFACE_STYLE_USAGE(.BOTH.,#588);
#588=SURFACE_SIDE_STYLE('',(#589));
#589=SURFACE_STYLE_FILL_AREA(#590);
#590=FILL_AREA_STYLE('Plastic - Glossy (Black)',(#591));
#591=FILL_AREA_STYLE_COLOUR('Plastic - Glossy (Black)',#592);
#592=COLOUR_RGB('Plastic - Glossy (Black)',0.0980392156862745,0.0980392156862745,
0.0980392156862745);
ENDSEC;
END-ISO-10303-21;
